<?xml version="1.0" encoding="UTF-8"?>
<svg width="24px" height="24px" viewBox="0 0 24 24" version="1.1" xmlns="http://www.w3.org/2000/svg" xmlns:xlink="http://www.w3.org/1999/xlink">
    <title>编组 17</title>
    <g id="页面-1" stroke="none" stroke-width="1" fill="none" fill-rule="evenodd">
        <g id="迁移记录" transform="translate(-723.000000, -257.000000)">
            <g id="编组-3" transform="translate(220.000000, 152.000000)">
                <g id="编组-2" transform="translate(44.000000, 97.000000)">
                    <g id="编组-17" transform="translate(459.000000, 8.000000)">
                        <circle id="椭圆形备份" fill="#FBF5E2" cx="12" cy="12" r="12"></circle>
                        <g id="chain-icon" transform="translate(4.500000, 3.000000)" fill="#F0B90B" fill-rule="nonzero">
                            <polygon id="路径" points="7.65 0 2.9529495 2.7570735 4.67982 3.775608 7.65 2.0370735 10.62018 3.775608 12.347055 2.7570735"></polygon>
                            <polygon id="路径" points="10.62018 5.21559 12.347055 6.234165 12.347055 8.271225 9.376875 10.009755 9.376875 13.486815 7.65 14.505345 5.923125 13.486815 5.923125 10.009755 2.9529495 8.271225 2.9529495 6.234165 4.67982 5.21559 7.65 6.954165"></polygon>
                            <polygon id="路径" points="12.347055 9.711225 12.347055 11.748285 10.62018 12.766815 10.62018 10.729755"></polygon>
                            <polygon id="路径" points="10.602945 14.206815 13.573125 12.468285 13.573125 8.991225 15.3 7.972695 15.3 13.486815 10.602945 16.24392"></polygon>
                            <polygon id="路径" points="13.573125 5.514165 11.846295 4.4956125 13.573125 3.4770735 15.3 4.4956125 15.3 6.532695 13.573125 7.551225"></polygon>
                            <polygon id="路径" points="5.923125 16.98147 5.923125 14.94441 7.65 15.96294 9.376875 14.94441 9.376875 16.98147 7.65 18"></polygon>
                            <polygon id="路径" points="4.67982 12.766815 2.9529495 11.748285 2.9529495 9.711225 4.67982 10.729755"></polygon>
                            <polygon id="路径" points="7.65 5.514165 5.923125 4.4956125 7.65 3.4770735 9.376875 4.4956125"></polygon>
                            <polygon id="路径" points="3.4537185 4.4956125 1.7268615 5.514165 1.7268615 7.551225 1.84297022e-14 6.532695 1.84297022e-14 4.4956125 1.7268615 3.4770735"></polygon>
                            <polygon id="路径" points="-1.11022302e-14 7.972695 1.7268615 8.991225 1.7268615 12.468285 4.697055 14.206815 4.697055 16.24392 -1.11022302e-14 13.486815"></polygon>
                        </g>
                    </g>
                </g>
            </g>
        </g>
    </g>
</svg>