<?xml version="1.0" encoding="UTF-8"?>
<svg width="16px" height="16px" viewBox="0 0 16 16" version="1.1" xmlns="http://www.w3.org/2000/svg" xmlns:xlink="http://www.w3.org/1999/xlink">
    <title>Rectangle 14</title>
    <g id="页面-1" stroke="none" stroke-width="1" fill="none" fill-rule="evenodd">
        <g id="画板" transform="translate(-1173.000000, -262.000000)" fill="#14171C">
            <g id="编组-5" transform="translate(0.000000, 146.000000)">
                <g id="编组-11" transform="translate(1157.000000, 64.000000)">
                    <g id="编组-5备份" transform="translate(0.000000, 40.000000)">
                        <g id="编组" transform="translate(16.000000, 12.000000)">
                            <path d="M12.1461335,2.01575087 C12.1818701,2.14082892 12.2,2.27027731 12.2,2.40036045 L12.2,3.57234946 L13.6,3.57234946 C14.3731986,3.57234946 15,4.19915081 15,4.97234946 L15,13.3723495 C15,14.1455481 14.3731986,14.7723495 13.6,14.7723495 L2.4,14.7723495 C1.62680135,14.7723495 1,14.1455481 1,13.3723495 L1.0187329,13.3725954 C1.00627985,13.2972373 1,13.2208978 1,13.1443385 L1,4.80036045 C1,4.17528795 1.41436824,3.62594755 2.01539042,3.45422692 L10.4153904,1.05422692 C11.1588394,0.841812919 11.9337195,1.27230185 12.1461335,2.01575087 Z M13.6,7.77234946 L12.2,7.77234946 L12.2,10.7443385 C12.2,11.369411 11.7856318,11.9187514 11.1846096,12.090472 L6.697,13.372 L13.6,13.3723495 L13.6,7.77234946 Z M10.8,2.40036045 L2.4,4.80036045 L2.4,13.1443385 L10.8,10.7443385 L10.8,2.40036045 Z M8.7,5.67234946 C9.08659932,5.67234946 9.4,5.98575014 9.4,6.37234946 C9.4,6.75894879 9.08659932,7.07234946 8.7,7.07234946 C8.31340068,7.07234946 8,6.75894879 8,6.37234946 C8,5.98575014 8.31340068,5.67234946 8.7,5.67234946 Z M13.6,4.97234946 L12.2,4.97234946 L12.2,6.37234946 L13.6,6.37234946 L13.6,4.97234946 Z" id="icon"></path>
                        </g>
                    </g>
                </g>
            </g>
        </g>
    </g>
</svg>