<?xml version="1.0" encoding="UTF-8"?>
<svg width="48px" height="48px" viewBox="0 0 48 48" version="1.1" xmlns="http://www.w3.org/2000/svg" xmlns:xlink="http://www.w3.org/1999/xlink">
    <title>comp-icn备份</title>
    <defs>
        <linearGradient x1="25%" y1="6.68571429%" x2="75%" y2="93.3142857%" id="linearGradient-1">
            <stop stop-color="#00EBA9" offset="0%"></stop>
            <stop stop-color="#02C18C" offset="100%"></stop>
        </linearGradient>
    </defs>
    <g id="页面-1" stroke="none" stroke-width="1" fill="none" fill-rule="evenodd">
        <g id="Token-流动性" transform="translate(-312.000000, -502.000000)" fill-rule="nonzero">
            <g id="编组-18" transform="translate(264.000000, 464.000000)">
                <g id="编组-9" transform="translate(24.000000, 22.000000)">
                    <g id="编组-3" transform="translate(0.000000, 16.000000)">
                        <g id="23124" transform="translate(24.000000, 0.000000)">
                            <circle id="椭圆形" fill="url(#linearGradient-1)" cx="24" cy="24" r="24"></circle>
                            <path d="M35.76,21.9698784 C33.6688815,21.1753677 31.4710211,20.696969 29.2388571,20.5504498 C27.1268571,20.3447355 27.1817143,20.365307 27.1817143,18.2121641 C27.1817143,17.5264498 27.408,17.4030212 28.0251429,17.4098784 C30.0822857,17.4441641 32.1051429,17.4098784 34.1417143,17.4098784 C34.6834286,17.4098784 34.8822857,17.2590212 34.8685714,16.7241641 C34.8342857,15.5310212 34.8205714,14.3310212 34.8685714,13.1310212 C34.8685714,12.445307 34.6628571,12.2601641 33.9908571,12.2668393 C30.72,12.2668393 27.456,12.2668393 24.1851429,12.2668393 C20.9142857,12.2668393 17.6502857,12.2668393 14.3794286,12.2668393 C13.6937143,12.2668393 13.4605714,12.4178784 13.4948571,13.1241641 C13.5497143,14.2830212 13.5428571,15.4555927 13.4948571,16.6144498 C13.4948571,17.2315927 13.7074286,17.3824498 14.2834286,17.3755927 C15.8674286,17.3755927 17.4514286,17.3755927 19.0422857,17.3755927 C21.1611429,17.3755927 21.1405714,17.3755927 21.1542857,19.501307 C21.1542857,20.1390212 21.0308571,20.3790212 20.3314286,20.4338784 C17.6107262,20.5176679 14.9198919,21.0266821 12.3565714,21.9424498 C11.4514286,22.3058784 10.2582857,22.6281641 10.2994286,23.8418784 C10.3405714,25.0555927 11.472,25.2887355 12.3565714,25.6384498 C14.888993,26.5439682 17.5473247,27.048334 20.2354286,27.133307 C20.9211429,27.181307 21.1611429,27.3527355 21.1542857,28.0864498 C21.1131429,31.0281641 21.1542857,33.9767355 21.1131429,36.9184498 C21.1131429,37.7138784 21.3531429,37.8990212 22.0937143,37.8647355 C23.4651429,37.8098784 24.8777143,37.8167355 26.2697143,37.8647355 C26.9554286,37.8647355 27.1542857,37.7001641 27.1405714,37.0075927 C27.0994286,34.0315927 27.1405714,31.0555927 27.1405714,28.093307 C27.1405714,27.3664498 27.3462857,27.1881641 28.0525714,27.133307 C30.7100767,27.0353906 33.3349962,26.5145733 35.8285714,25.5904498 C36.6788571,25.2407355 37.7622857,24.9047355 37.7487003,23.7870212 C37.7348571,22.669307 36.6102857,22.3264498 35.76,21.9698784 Z M35.8354286,24.253307 C34.3674659,24.7548331 32.8424428,25.0704345 31.296,25.1927355 C28.8871989,25.4599462 26.4646323,25.5835933 24.0411429,25.5630212 C20.4520431,25.6446309 16.864833,25.3318998 13.344,24.6304498 C12.8126113,24.493817 12.2922796,24.3173168 11.7874286,24.1024498 C11.3485714,23.9310212 11.376,23.677307 11.7394286,23.4167355 C12.4647555,22.9307062 13.2539892,22.5476279 14.0845714,22.2784498 C16.1465376,21.6123321 18.2762054,21.177659 20.4342857,20.9824498 C21.0308571,20.9138784 21.12,21.1538784 21.12,21.6681641 C21.12,22.5390212 21.1885714,23.4098784 21.1954286,24.2807355 C21.1954286,24.685307 21.3188571,24.8498784 21.744,24.8567355 C23.3257143,24.8567355 24.9074286,24.893307 26.4891429,24.9664498 C27.0582857,24.9664498 27.1748571,24.7470212 27.1748571,24.2190212 C27.1748571,23.3481641 27.1748571,22.477307 27.1748571,21.5995927 C27.1748571,21.2635927 27.1748571,20.9138784 27.6754286,21.0030212 C30.4182857,21.325307 33.1611429,21.7915927 35.6914286,23.101307 L35.856,23.197307 C36.096,23.3550212 36.4731429,23.4715927 36.4594286,23.7595927 C36.4457143,24.0475927 36.1097143,24.1504498 35.8422857,24.253307 L35.8354286,24.253307 Z" id="形状" fill="#FDFDFD"></path>
                        </g>
                    </g>
                </g>
            </g>
        </g>
    </g>
</svg>