<?xml version="1.0" encoding="UTF-8"?>
<svg width="48px" height="48px" viewBox="0 0 48 48" version="1.1" xmlns="http://www.w3.org/2000/svg" xmlns:xlink="http://www.w3.org/1999/xlink">
    <title>eth备份</title>
    <g id="页面-1" stroke="none" stroke-width="1" fill="none" fill-rule="evenodd">
        <g id="操作状态" transform="translate(-2606.000000, -918.000000)">
            <g id="eth备份" transform="translate(2606.000000, 918.000000)">
                <circle id="椭圆形" fill="#ECF1FE" cx="24" cy="24" r="24"></circle>
                <g id="编组-4" transform="translate(15.000000, 9.000000)">
                    <path d="M12.4243254,9.08384697 C12.4243254,4.84567439 10.3953625,1.20128407 8.8516593,0.0152872911 C8.84525769,0.0111937427 8.73316414,-0.0531707734 8.74274479,0.11710342 C8.74274479,0.11871471 8.74117704,0.11954213 8.74117704,0.12198084 C8.61305769,8.30433084 4.50391898,10.521597 2.24519479,13.5094083 C-2.96806973,20.4031179 1.88008511,27.9615066 6.8171222,29.3584954 C9.5794835,30.1396663 6.17896414,27.975355 5.74099801,23.4031663 C5.21175446,17.8771373 12.4243254,13.6584744 12.4243254,9.08384697 Z" id="路径" fill="#1253FC"></path>
                    <path d="M15.1325561,11.8694195 C15.0989367,11.8474276 15.0508593,11.8327954 15.0180674,11.8849228 C14.9275738,12.9153647 13.823448,15.117955 12.4246303,17.1413437 C7.67898833,24.0032631 10.3829077,27.312026 11.9033996,29.088626 C12.7865609,30.1198518 11.9033996,29.088626 14.1100835,28.0345808 C14.2838416,27.9514905 18.416148,25.7423679 18.8637383,20.7091325 C19.2969141,15.8347615 16.2254899,12.762205 15.1325561,11.8694195 Z" id="路径" fill="#00ACE4"></path>
                </g>
            </g>
        </g>
    </g>
</svg>