<?xml version="1.0" encoding="UTF-8"?>
<svg width="48px" height="48px" viewBox="0 0 48 48" version="1.1" xmlns="http://www.w3.org/2000/svg" xmlns:xlink="http://www.w3.org/1999/xlink">
    <title>eth备份 89</title>
    <g id="页面-1" stroke="none" stroke-width="1" fill="none" fill-rule="evenodd">
        <g id="操作状态" transform="translate(-2613.000000, -1287.000000)" fill-rule="nonzero">
            <g id="eth备份-89" transform="translate(2613.000000, 1287.000000)">
                <circle id="椭圆形" fill="#FFFFFF" cx="24" cy="24" r="24"></circle>
                <g id="1.132293e3" transform="translate(8.000000, 8.000000)">
                    <path d="M11.7945806,10.4010323 L11.8234839,10.4815484 C12.0814782,11.2321828 12.7730844,11.7480397 13.5661188,11.7813489 C14.3591533,11.8146582 15.0915816,11.3586141 15.4116129,10.6322581 L18.9212903,2.71070968 C19.2429716,1.9811736 19.0830221,1.12892979 18.5187097,0.565677419 L18.5187097,0.565677419 C18.070242,0.117758269 17.4304539,-0.0814530595 16.8069755,0.0326933628 C16.183497,0.146839785 15.6557847,0.559797047 15.3950968,1.13754839 L11.8606452,8.98270968 C11.6588212,9.42982292 11.6351929,9.93709401 11.7945806,10.4010323 Z" id="路径" fill="#E11F53"></path>
                    <path d="M17.6887742,8.68335484 L17.6887742,8.68335484 C17.8901783,8.22772212 18.2725483,7.87677975 18.7437419,7.71509677 L23.1225806,6.21419355 C23.7689197,5.99218739 24.4852731,6.15805445 24.9682581,6.64154839 L25.0260645,6.69935484 C25.4669646,7.1392248 25.6471906,7.77683597 25.5017984,8.38242623 C25.3564061,8.9880165 24.9063498,9.47430728 24.3138065,9.66606452 L19.8792258,11.1112258 C19.20722,11.3301027 18.4693401,11.133064 17.9959071,10.6083163 C17.5224741,10.0835687 17.4021401,9.32937326 17.6887742,8.68335484 L17.6887742,8.68335484 Z" id="路径" fill="#E11F53"></path>
                    <path d="M21.508129,11.7450323 L21.4276129,11.771871 C20.678694,12.0315583 20.1646544,12.72269 20.13139,13.5146562 C20.0981256,14.3066225 20.5523986,15.0384255 21.2769032,15.36 L29.1984516,18.8696774 C29.927015,19.1936235 30.7798572,19.0352033 31.3434839,18.4712258 L31.3434839,18.4712258 C31.7924947,18.023478 31.9926702,17.3835925 31.8788753,16.759782 C31.7650804,16.1359715 31.351862,15.6079808 30.7736774,15.3476129 L22.9285161,11.8110968 C22.480807,11.6087298 21.9726895,11.5850964 21.508129,11.7450323 Z" id="路径" fill="#4C8BF5"></path>
                    <path d="M23.2732903,17.6949677 L23.2732903,17.6949677 C23.7289631,17.8969469 24.0803605,18.2789982 24.2436129,18.7499355 L25.7445161,23.1225806 C25.9655011,23.7689721 25.799761,24.4847771 25.3171613,24.9682581 L25.2593548,25.0260645 C24.8197603,25.4639386 24.1847557,25.6429241 23.5811948,25.499079 C22.977634,25.3552338 22.4916178,24.9090782 22.2967742,24.32 L20.8516129,19.8854194 C20.6346228,19.2149452 20.8312367,18.4795447 21.3538699,18.0068134 C21.8765031,17.5340821 22.6278808,17.4120068 23.2732903,17.6949677 Z" id="路径" fill="#4C8BF5"></path>
                    <path d="M20.1269677,21.5101935 L20.100129,21.4317419 C19.8394417,20.6852889 19.1498991,20.1732839 18.3599522,20.1396111 C17.5700053,20.1059382 16.839393,20.5574067 16.516129,21.2789677 L13.0064516,29.2005161 C12.6827683,29.9297826 12.8411134,30.7830409 13.4049032,31.3476129 L13.4049032,31.3476129 C13.8533709,31.7955321 14.493159,31.9947434 15.1166374,31.880597 C15.7401159,31.7664505 16.2678282,31.3534933 16.5285161,30.7757419 L20.0650323,22.9305806 C20.266048,22.4823389 20.2882039,21.9742311 20.1269677,21.5101935 L20.1269677,21.5101935 Z" id="路径" fill="#43C6AC"></path>
                    <path d="M14.1770323,23.2712258 L14.1770323,23.2712258 C13.9753716,23.7274346 13.592104,24.0785138 13.12,24.2394839 L8.74322581,25.7403871 C8.09319454,25.9665717 7.37105712,25.80048 6.88516129,25.3130323 L6.82941935,25.2552258 C6.39285598,24.813961 6.21641007,24.1778365 6.36329173,23.5747379 C6.51017339,22.9716393 6.95936032,22.4878845 7.54993548,22.2967742 L11.9845161,20.8516129 C12.6545044,20.6360832 13.3886242,20.8326964 13.8612104,21.3542322 C14.3337967,21.8757681 14.4573389,22.625652 14.1770323,23.2712258 Z" id="路径" fill="#43C6AC"></path>
                    <path d="M10.4010323,20.1806452 L10.4815484,20.1538065 C11.2321828,19.8958121 11.7480397,19.2042059 11.7813489,18.4111715 C11.8146582,17.618137 11.3586141,16.8857087 10.6322581,16.5656774 L2.71070968,13.056 C1.98138595,12.7324873 1.12806784,12.8926384 0.565677419,13.4585806 L0.565677419,13.4585806 C0.117758269,13.9070483 -0.0814530595,14.5468364 0.0326933628,15.1703149 C0.146839785,15.7937933 0.559797047,16.3215056 1.13754839,16.5821935 L8.98270968,20.1166452 C9.43008887,20.3177932 9.93735501,20.340683 10.4010323,20.1806452 L10.4010323,20.1806452 Z" id="路径" fill="#F8B233"></path>
                    <path d="M8.60077419,14.2926452 L8.60077419,14.2926452 C8.14794171,14.0892362 7.7996314,13.7072907 7.63870968,13.2376774 L6.1316129,8.86090323 C5.90594519,8.21084391 6.07197261,7.48898557 6.55896774,7.00283871 L6.61677419,6.94503226 C7.05756242,6.50544357 7.69490566,6.32611009 8.3002487,6.4713419 C8.90559173,6.61657372 9.39219077,7.06555955 9.58554839,7.65729032 L11.0307097,12.091871 C11.2559946,12.7657551 11.0613452,13.509091 10.5346951,13.986074 C10.0080449,14.4630571 9.24912275,14.5833638 8.60077419,14.2926452 Z" id="路径" fill="#F8B233"></path>
                </g>
            </g>
        </g>
    </g>
</svg>