<?xml version="1.0" encoding="UTF-8"?>
<svg width="30px" height="30px" viewBox="0 0 30 30" version="1.1" xmlns="http://www.w3.org/2000/svg" xmlns:xlink="http://www.w3.org/1999/xlink">
    <title>矩形</title>
    <g id="页面-1" stroke="none" stroke-width="1" fill="none" fill-rule="evenodd">
        <g id="连接钱包" transform="translate(-1290.000000, -857.000000)" fill="#FFFFFF">
            <g id="编组-16" transform="translate(0.000000, 812.000000)">
                <g id="编组-15备份" transform="translate(1290.000000, 45.000000)">
                    <rect id="矩形" opacity="0.200000003" x="0" y="0" width="30" height="30" rx="15"></rect>
                    <path d="M24,8.29886982 L22.5647841,9.64671411 C22.4392027,9.74047719 22.379402,9.89284219 22.4033223,10.039347 L22.4033223,19.960653 C22.379402,20.113018 22.4392027,20.265383 22.5647841,20.3532859 L23.9700997,21.7011302 L23.9700997,22 L16.9136213,22 L16.9136213,21.7128506 L18.3667774,20.3298451 C18.510299,20.1892005 18.510299,20.1481792 18.510299,19.9372122 L18.510299,11.9146086 L14.4677741,21.970699 L13.923588,21.970699 L9.21727575,11.9146086 L9.21727575,18.6538301 C9.17541528,18.9351193 9.27707641,19.2222687 9.48039867,19.4273755 L11.3700997,21.6718292 L11.3700997,21.970699 L6,21.970699 L6,21.6718292 L7.889701,19.4273755 C8.09302326,19.2222687 8.18272425,18.9351193 8.13488372,18.6538301 L8.13488372,10.859774 C8.15880399,10.6429468 8.07508306,10.4319799 7.9076412,10.2854751 L6.22724252,8.29886982 L6.22724252,8 L11.4478405,8 L15.4784053,16.673085 L19.0245847,8.00586019 L24,8.00586019 L24,8.29886982 Z" id="路径"></path>
                </g>
            </g>
        </g>
    </g>
</svg>