<?xml version="1.0" encoding="UTF-8"?>
<svg width="16px" height="16px" viewBox="0 0 16 16" version="1.1" xmlns="http://www.w3.org/2000/svg" xmlns:xlink="http://www.w3.org/1999/xlink">
    <title>Rectangle 14</title>
    <g id="页面-1" stroke="none" stroke-width="1" fill="none" fill-rule="evenodd">
        <g id="Buildr-金库管理" transform="translate(-760.000000, -215.000000)" fill="#FFFFFF">
            <g id="编组" transform="translate(220.000000, 195.000000)">
                <g id="编组" transform="translate(540.000000, 20.000000)">
                    <path d="M2.66666667,8 C2.66666667,10.9455187 5.05448133,13.3333333 8,13.3333333 C9.59574921,13.3333333 10.9643067,12.6142024 11.8712916,11.3333333 L9.33333333,11.3333333 L9.33333333,10 L14,10 L14,14.6666667 L12.6666667,14.6666667 L12.6666667,12.4864341 C11.5165953,13.8783255 9.86948906,14.6666667 8,14.6666667 C4.31810167,14.6666667 1.33333333,11.6818983 1.33333333,8 L2.66666667,8 L2.66666667,8 Z M3.33333333,1.33333333 L3.33333333,3.51356591 C4.48340465,2.12167452 6.13051094,1.33333333 8,1.33333333 C11.6818983,1.33333333 14.6666667,4.31810167 14.6666667,8 L13.3333333,8 L13.3333333,8 C13.3333333,5.05448133 10.9455187,2.66666667 8,2.66666667 C6.40425079,2.66666667 5.03569326,3.38579758 4.12870844,4.66666667 L6.66666667,4.66666667 L6.66666667,6 L2,6 L2,1.33333333 L3.33333333,1.33333333 Z" id="icon"></path>
                </g>
            </g>
        </g>
    </g>
</svg>