<?xml version="1.0" encoding="UTF-8"?>
<svg width="16px" height="17px" viewBox="0 0 16 17" version="1.1" xmlns="http://www.w3.org/2000/svg" xmlns:xlink="http://www.w3.org/1999/xlink">
    <title>icon / tabbar / user</title>
    <g id="页面-1" stroke="none" stroke-width="1" fill="none" fill-rule="evenodd">
        <g id="合成资产" transform="translate(-46.000000, -184.000000)" fill="#8690A8">
            <g id="编组-18" transform="translate(10.000000, 98.000000)">
                <g id="编组-11" transform="translate(20.000000, 75.000000)">
                    <g id="Group" transform="translate(16.000000, 11.700000)">
                        <path d="M6.68322896,0.975 C9.82198965,0.975 12.3664579,3.45585657 12.3664579,6.51614824 C12.3664579,7.79673457 11.9209154,8.97586043 11.1727238,9.91420484 L15,13.6454541 L13.9953376,14.625 L10.1681147,10.8936334 C9.20575895,11.622983 7.99651414,12.0572965 6.68322896,12.0572965 C3.54446828,12.0572965 1,9.5764399 1,6.51614824 C1,3.45585657 3.54446828,0.975 6.68322896,0.975 Z M6.68322896,2.36028706 C4.32915845,2.36028706 2.42080724,4.22092949 2.42080724,6.51614824 C2.42080724,8.81136699 4.32915845,10.6720094 6.68322896,10.6720094 C9.03729947,10.6720094 10.9456507,8.81136699 10.9456507,6.51614824 C10.9456507,4.22092949 9.03729947,2.36028706 6.68322896,2.36028706 Z" id="icon"></path>
                    </g>
                </g>
            </g>
        </g>
    </g>
</svg>