<?xml version="1.0" encoding="UTF-8"?>
<svg width="30px" height="30px" viewBox="0 0 30 30" version="1.1" xmlns="http://www.w3.org/2000/svg" xmlns:xlink="http://www.w3.org/1999/xlink">
    <title>矩形</title>
    <g id="页面-1" stroke="none" stroke-width="1" fill="none" fill-rule="evenodd">
        <g id="连接钱包" transform="translate(-1182.000000, -857.000000)" fill="#FFFFFF">
            <g id="编组-16" transform="translate(0.000000, 812.000000)">
                <g id="编组-15备份-2" transform="translate(1182.000000, 45.000000)">
                    <rect id="矩形" opacity="0.200000003" x="0" y="0" width="30" height="30" rx="15"></rect>
                    <g id="telegram" transform="translate(5.000000, 8.000000)" fill-rule="nonzero">
                        <path d="M6.77160182,14.0925185 L7.05123556,9.89720954 L14.7211895,3.03396181 C15.0607448,2.72650417 14.6512811,2.57773435 14.2018697,2.84552003 L4.73427029,8.78639489 L0.639633418,7.49705644 C-0.239215482,7.24910673 -0.249202409,6.64410947 0.839371795,6.20771798 L16.7884818,0.098237349 C17.5175269,-0.229056257 18.2166113,0.276761134 17.9369775,1.38757578 L15.2205355,14.0925185 C15.030784,14.9950554 14.4815035,15.2132512 13.7224976,14.7966957 L9.58791304,11.7617913 L7.6005161,13.675963 C7.37081697,13.9040767 7.1810655,14.0925185 6.77160182,14.0925185 Z" id="路径"></path>
                    </g>
                </g>
            </g>
        </g>
    </g>
</svg>