<?xml version="1.0" encoding="UTF-8"?>
<svg width="30px" height="30px" viewBox="0 0 30 30" version="1.1" xmlns="http://www.w3.org/2000/svg" xmlns:xlink="http://www.w3.org/1999/xlink">
    <title>矩形</title>
    <g id="页面-1" stroke="none" stroke-width="1" fill="none" fill-rule="evenodd">
        <g id="连接钱包" transform="translate(-1236.000000, -857.000000)" fill="#FFFFFF">
            <g id="编组-16" transform="translate(0.000000, 812.000000)">
                <g id="编组-15" transform="translate(1236.000000, 45.000000)">
                    <rect id="矩形" opacity="0.200000003" x="0" y="0" width="30" height="30" rx="15"></rect>
                    <path d="M24,9.77133709 C23.3258869,10.0776464 22.6108412,10.278692 21.8786557,10.3677842 C22.6497476,9.89430291 23.2265886,9.14936753 23.5016066,8.27189747 C22.7766968,8.71323226 21.9834729,9.02406403 21.1562951,9.19092837 C20.0109443,7.94468288 18.1930719,7.64069755 16.7210021,8.44925697 C15.2489322,9.25781638 14.488282,10.9780992 14.8651475,12.6464482 C11.8953751,12.4939925 9.1284315,11.0554194 7.25321311,8.68889602 C6.27327199,10.4197199 6.77358998,12.6335471 8.39606557,13.7458356 C7.80970238,13.7270481 7.23623172,13.5646659 6.72354098,13.2722487 C6.72354098,13.2879845 6.72354098,13.3025098 6.72354098,13.3200613 C6.7237633,15.122879 7.96232786,16.6760101 9.68527869,17.0340113 C9.14158378,17.1860749 8.57112269,17.2082292 8.01777049,17.0987702 C8.50086811,18.6418578 9.8872147,19.6992098 11.4672787,19.7296739 C10.1593044,20.7828394 8.54378028,21.353955 6.88081967,21.3510659 C6.58645147,21.3512495 6.29233069,21.3335663 6,21.2981089 C7.68857791,22.4110359 9.65390358,23.0018634 11.6611475,23 C18.4536393,23 22.1681311,17.2279852 22.1681311,12.2224896 C22.1681311,12.0580708 22.1646885,11.8945597 22.1578033,11.7319565 C22.880746,11.196047 23.5045971,10.5320927 24,9.77133709 Z" id="Shape"></path>
                </g>
            </g>
        </g>
    </g>
</svg>