<?xml version="1.0" encoding="UTF-8"?>
<svg width="14px" height="14px" viewBox="0 0 14 14" version="1.1" xmlns="http://www.w3.org/2000/svg" xmlns:xlink="http://www.w3.org/1999/xlink">
    <title>Rectangle 14</title>
    <g id="页面-1" stroke="none" stroke-width="1" fill="none" fill-rule="evenodd">
        <g id="Buildr-抵押弹窗" transform="translate(-603.000000, -503.000000)" fill="#828489">
            <g id="编组-3" transform="translate(470.000000, 234.000000)">
                <g id="编组-7备份" transform="translate(44.000000, 269.000000)">
                    <g id="编组" transform="translate(89.000000, 0.000000)">
                        <path d="M7,1.75 C9.89949494,1.75 12.25,4.10050506 12.25,7 C12.25,9.89949494 9.89949494,12.25 7,12.25 C4.10050506,12.25 1.75,9.89949494 1.75,7 C1.75,4.10050506 4.10050506,1.75 7,1.75 Z M7,2.70454545 C4.62768596,2.70454545 2.70454545,4.62768596 2.70454545,7 C2.70454545,9.37231404 4.62768596,11.2954545 7,11.2954545 C9.37231404,11.2954545 11.2954545,9.37231404 11.2954545,7 C11.2954545,4.62768596 9.37231404,2.70454545 7,2.70454545 Z M7.00015667,8.43102896 C7.26383364,8.43102896 7.47758606,8.64471124 7.47758606,8.90830169 C7.47758606,9.17189214 7.26383364,9.38557441 7.00015667,9.38557441 C6.73647969,9.38557441 6.52272727,9.17189214 6.52272727,8.90830169 C6.52272727,8.64471124 6.73647969,8.43102896 7.00015667,8.43102896 Z M7,4.13636364 C8.09025621,4.13636364 8.90909091,4.7666634 8.90909091,5.80681818 C8.90909091,6.61896796 8.61099578,6.9667456 7.92935194,7.30756752 C7.53713215,7.50367742 7.47727273,7.57351341 7.47727273,7.95454545 L6.52272727,7.95454545 C6.52272727,7.14239568 6.8208224,6.79461803 7.50246624,6.45379611 C7.89468603,6.25768622 7.95454545,6.18785022 7.95454545,5.80681818 C7.95454545,5.35646698 7.60955403,5.09090909 7,5.09090909 C6.4728191,5.09090909 6.04545455,5.51827365 6.04545455,6.04545455 L5.09090909,6.04545455 C5.09090909,4.99109275 5.9456382,4.13636364 7,4.13636364 Z" id="icon"></path>
                    </g>
                </g>
            </g>
        </g>
    </g>
</svg>