<?xml version="1.0" encoding="UTF-8"?>
<svg width="128px" height="128px" viewBox="0 0 128 128" version="1.1" xmlns="http://www.w3.org/2000/svg" xmlns:xlink="http://www.w3.org/1999/xlink">
    <title>编组</title>
    <g id="Welcome" stroke="none" stroke-width="1" fill="none" fill-rule="evenodd">
        <g id="Desktop" transform="translate(-660.000000, -64.000000)">
            <g id="编组" transform="translate(660.000000, 64.000000)">
                <circle id="椭圆形" fill="#605AA5" cx="64" cy="64" r="64"></circle>
                <g id="BABEL-09" transform="translate(21.000000, 17.000000)" fill="#EFECF5" fill-rule="nonzero">
                    <path d="M23.6873059,19.0562109 L62.5605479,9.93128246 L62.5605479,1.16879273 C48.1479452,5.0276994 36.7810046,-2.82869346 23.496621,1.16879273 C23.496621,6.22694525 23.496621,12.6175932 23.496621,17.4358965 C23.5019178,17.8622951 23.5972603,18.2886936 23.6873059,19.0562109 Z M12.7282192,39.9763886 L12.7282192,45.6048492 C15.1700457,45.071851 17.1192694,44.6081426 19.0843836,44.1550942 C36.2071842,40.168268 53.333516,36.1849951 70.463379,32.2052755 C71.5810046,31.9441064 72.6615525,31.9174565 72.6458352,30.2385123 C72.5768037,23.9224841 72.6191781,19.2694102 72.6191781,12.5376435 C69.3881279,13.3211507 66.5331507,12.377744 63.6675799,13.0439917 C47.4646575,16.8389386 31.2617352,20.6552054 15.0323288,24.3542126 C13.1943379,24.7752812 12.6699543,25.5321386 12.7176256,27.3390023 C12.8076712,31.5496878 12.7282192,35.7657032 12.7282192,39.9763886 Z M9.66666667,69.1473779 C31.5601218,64.1478551 53.4535769,59.1430024 75.347032,54.1328197 C80.9987215,52.8376342 81.0040183,52.8482942 81.0040183,47.0546042 L81.0040183,34.8596063 C75.5377169,36.1494619 70.4845662,35.5898138 65.4261187,36.7624098 C46.5836225,41.1401013 27.7517199,45.5213462 8.93041096,49.9061443 C8.2630137,50.0607138 7.20894977,50.7855913 7.19835616,51.2599597 C7.08182648,57.2988288 7.12420091,63.3376979 7.12420091,69.6324062 C8.16237443,69.4351969 8.91452055,69.3179373 9.66666667,69.1473779 Z M0,74.7491885 L0,83 L68.3817352,83 L68.3817352,71.0075414 C68.3817352,68.7909598 70.1674444,66.9940653 72.3702283,66.9940653 L73.2653881,66.9940653 C75.4681721,66.9940653 77.2538813,68.7909598 77.2538813,71.0075414 L77.2538813,83 L77.6511416,83 C80.130613,83 82.5085317,82.0088642 84.2617828,80.2446312 C86.0150338,78.4803982 87,76.0875848 87,73.5925825 L87,54.7884075 L0,74.7491885 Z" id="形状"></path>
                </g>
            </g>
        </g>
    </g>
</svg>