<?xml version="1.0" standalone="no"?><!DOCTYPE svg PUBLIC "-//W3C//DTD SVG 1.1//EN" "http://www.w3.org/Graphics/SVG/1.1/DTD/svg11.dtd"><svg t="1619680881203" class="icon" viewBox="0 0 1024 1024" version="1.1" xmlns="http://www.w3.org/2000/svg" p-id="13360" xmlns:xlink="http://www.w3.org/1999/xlink" width="48" height="48"><defs><style type="text/css"></style></defs><path d="M-387.117056 144.707584A0.284 0 0 1 1-387.117056 146.755584Z" p-id="13361" fill="#cccccc"></path><path d="M514.2528 136.198144c-0.196608 0-0.38912 0.008192-0.58368 0.008192s-0.387072-0.008192-0.581632-0.008192c-220.751872 0-399.70816 178.956288-399.70816 399.710208s178.956288 399.710208 399.70816 399.710208c0.19456 0 0.387072-0.008192 0.581632-0.008192s0.387072 0.008192 0.58368 0.008192c220.751872 0 399.70816-178.956288 399.70816-399.710208S735.004672 136.198144 514.2528 136.198144zM514.2528 907.689984c-0.196608 0-0.38912-0.008192-0.58368-0.008192s-0.387072 0.008192-0.581632 0.008192c-205.328384 0-371.779584-166.4512-371.779584-371.781632S307.759104 164.12672 513.087488 164.12672c0.19456 0 0.387072 0.008192 0.581632 0.008192s0.387072-0.008192 0.58368-0.008192c205.328384 0 371.779584 166.4512 371.779584 371.781632S719.579136 907.689984 514.2528 907.689984z" p-id="13362" fill="#cccccc"></path><path d="M424.452096 412.442624c0 46.20288 31.862784 78.862336 85.235712 97.980416l0-184.0128C450.738176 329.596928 424.452096 370.223104 424.452096 412.442624z" p-id="13363" fill="#cccccc"></path><path d="M531.992576 567.779328l0 199.944192c61.335552-3.188736 86.827008-47.796224 86.827008-93.200384C618.819584 651.419648 618.022912 591.675392 531.992576 567.779328z" p-id="13364" fill="#cccccc"></path><path d="M513.66912 190.889984c-190.550016 0-345.018368 154.4704-345.018368 345.018368S323.121152 880.92672 513.66912 880.92672c190.54592 0 345.01632-154.4704 345.01632-345.018368S704.21504 190.889984 513.66912 190.889984zM531.992576 784.451584l0 71.692288-22.304768 0 0-70.895616c-37.439488 0-79.659008-3.979264-124.268544-29.472768-4.780032-15.136768-12.746752-58.947584-20.711424-103.559168l15.13472-5.576704c14.338048 43.016192 48.592896 112.320512 129.845248 120.287232L509.687808 559.812608l-32.659456-15.13472c-47.796224-22.306816-91.60704-52.574208-91.60704-113.913856 0-56.557568 39.829504-111.52384 124.268544-119.488512l0-66.117632 22.304768 0-0.79872 65.32096c16.730112-0.796672 43.812864 0 99.57376 14.338048 4.780032 25.491456 8.761344 53.372928 16.728064 97.980416l-15.929344 5.576704c-16.730112-53.372928-33.458176-91.60704-99.57376-101.167104l-0.79872 191.97952c60.542976 21.508096 133.031936 53.37088 133.031936 136.216576C664.225792 722.31936 616.429568 774.096896 531.992576 784.451584z" p-id="13365" fill="#cccccc"></path></svg>