<?xml version="1.0" standalone="no"?><!DOCTYPE svg PUBLIC "-//W3C//DTD SVG 1.1//EN" "http://www.w3.org/Graphics/SVG/1.1/DTD/svg11.dtd"><svg t="1619680698834" class="icon" viewBox="0 0 1024 1024" version="1.1" xmlns="http://www.w3.org/2000/svg" p-id="9182" xmlns:xlink="http://www.w3.org/1999/xlink" width="48" height="48"><defs><style type="text/css"></style></defs><path d="M769.3 133.1H254.7c-34.5 0-62.7 28.2-62.7 62.7v643.8c0 19.7 23.3 30.1 37.9 16.9l44.6-40c8.8-7.9 22.1-7.7 30.7 0.3l65.5 61.2c7.8 7.3 19.6 8.2 28.4 2.1l100-68.7c7.7-5.3 18-5.3 25.7 0l100.3 68.8c8.7 6 20.5 5.1 28.3-2l66.3-61.2c8.6-8 21.9-8 30.6-0.2l43.6 39.4c14.6 13.2 38 2.8 38-16.9V195.8c0.1-34.5-28.1-62.7-62.6-62.7zM256 288c0-17.6 14.4-32.1 32.1-32.1h192.8c17.6 0 32.1 14.4 32.1 32.1 0 17.6-14.4 32.1-32.1 32.1H288.1c-17.6 0-32.1-14.5-32.1-32.1z m320.1 128.2c0 17.6-14.4 32.1-32.1 32.1H288.1c-17.6 0-32.1-14.4-32.1-32.1 0-17.6 14.4-32.1 32.1-32.1H544c17.7 0 32.1 14.4 32.1 32.1z" p-id="9183" fill="#605AA5"></path></svg>