<?xml version="1.0" encoding="UTF-8"?>
<svg width="48px" height="48px" viewBox="0 0 48 48" version="1.1" xmlns="http://www.w3.org/2000/svg" xmlns:xlink="http://www.w3.org/1999/xlink">
    <title>矩形</title>
    <defs>
        <linearGradient x1="30.7821315%" y1="16.2772059%" x2="73.5168275%" y2="68.6230302%" id="linearGradient-1">
            <stop stop-color="#FC466B" offset="0%"></stop>
            <stop stop-color="#F9466D" offset="22%"></stop>
            <stop stop-color="#F04774" offset="37%"></stop>
            <stop stop-color="#E14980" offset="50%"></stop>
            <stop stop-color="#CB4C90" offset="61%"></stop>
            <stop stop-color="#AF50A6" offset="72%"></stop>
            <stop stop-color="#8D54C0" offset="83%"></stop>
            <stop stop-color="#6559DE" offset="92%"></stop>
            <stop stop-color="#3F5EFB" offset="100%"></stop>
        </linearGradient>
    </defs>
    <g id="页面-1" stroke="none" stroke-width="1" fill="none" fill-rule="evenodd">
        <g id="操作状态" transform="translate(-2532.000000, -1394.000000)">
            <g id="编组-2备份" transform="translate(2532.000000, 1394.000000)">
                <rect id="矩形" x="0" y="0" width="48" height="48"></rect>
                <path d="M3.89801999,18.5790832 L9.47737082,18.5790832 C9.53045025,18.5769624 9.57729648,18.5441059 9.59692834,18.4952292 L11.1461945,14.6576769 C11.2342357,14.4370774 11.4496303,14.2922839 11.6891849,14.2926654 L36.3778123,14.2926654 C36.5836359,14.2974377 36.77222,14.4076084 36.8759686,14.5836881 L38.3704376,17.1584983 C38.45146,17.2974789 38.6019252,17.3823443 38.7639811,17.3804647 L44.0643644,17.3804647 C44.212561,17.3819039 44.3519008,17.3107346 44.4366223,17.1903298 C44.5213438,17.0699251 44.5404991,16.915844 44.4877973,16.7786891 L41.7329928,9.37980917 C41.6510296,9.15246822 41.4337913,9.00051508 41.1900024,9 L7.60430304,9 C7.41577393,9.00038587 7.24716585,9.11626908 7.18087017,9.29102261 L3.77348091,18.4015101 C3.75644175,18.4419093 3.76139317,18.488124 3.78661343,18.5240841 C3.81183369,18.5600442 3.85383788,18.5807808 3.89801999,18.5790832 Z M44.5127051,20.9121967 L3.13584082,20.8972454 C3.08281626,20.8948352 3.03358045,20.9245703 3.01161259,20.9724245 C2.98964472,21.0202786 2.99939333,21.0765612 3.03620955,21.1144327 L3.03620955,21.1144327 L8.48105817,26.4761544 C8.58906497,26.583937 8.73620304,26.6443457 8.88954636,26.6438623 L31.1023368,26.6438623 C31.280131,26.6545707 31.4351146,26.7673843 31.4984808,26.9322182 C31.561847,27.0970521 31.5218509,27.2833541 31.3962491,27.4084133 L24.1630192,34.2203154 C23.9395531,34.4252386 23.5944169,34.4252386 23.3709507,34.2203154 L19.4404973,30.7329767 C19.3593642,30.6578297 19.2526951,30.6155816 19.1416035,30.6145946 L12.8349444,30.6145946 C12.6526621,30.6159612 12.4889376,30.7253047 12.4193677,30.8921379 C12.3497978,31.058971 12.387917,31.2508371 12.5161244,31.3791455 L19.4404973,38.2601038 C19.9199613,38.7349576 20.5706673,39.0012008 21.2488048,38.9999959 L25.9165295,38.9999959 C26.8505326,38.9945968 27.7450227,38.6261473 28.4073111,37.9740138 L44.8464698,21.696478 C44.9925634,21.5689261 45.0400397,21.3632258 44.9644052,21.1854997 C44.8887708,21.0077737 44.7069335,20.8977523 44.5127051,20.9121967 Z" id="形状" fill="url(#linearGradient-1)" fill-rule="nonzero"></path>
            </g>
        </g>
    </g>
</svg>