<?xml version="1.0" standalone="no"?><!DOCTYPE svg PUBLIC "-//W3C//DTD SVG 1.1//EN" "http://www.w3.org/Graphics/SVG/1.1/DTD/svg11.dtd"><svg t="1619685750836" class="icon" viewBox="0 0 1024 1024" version="1.1" xmlns="http://www.w3.org/2000/svg" p-id="22661" xmlns:xlink="http://www.w3.org/1999/xlink" width="48" height="48"><defs><style type="text/css"></style></defs><path d="M768 192v640H298.666667a42.666667 42.666667 0 0 1-42.666667-42.666667V234.666667a42.666667 42.666667 0 0 1 42.666667-42.666667h469.333333m0-42.666667H298.666667a85.333333 85.333333 0 0 0-85.333334 85.333334v554.666666a85.333333 85.333333 0 0 0 85.333334 85.333334h469.333333a42.666667 42.666667 0 0 0 42.666667-42.666667V192a42.666667 42.666667 0 0 0-42.666667-42.666667z" fill="#605AA5" p-id="22662"></path><path d="M772.48 742.186667v94.293333H289.706667a38.186667 38.186667 0 0 1-38.186667-38.186667v-17.92a38.186667 38.186667 0 0 1 38.186667-38.186666h482.773333M810.666667 704H289.706667A76.373333 76.373333 0 0 0 213.333333 780.373333v17.92A76.373333 76.373333 0 0 0 289.706667 874.666667h482.773333A38.186667 38.186667 0 0 0 810.666667 836.48V704z" fill="#605AA5" p-id="22663"></path></svg>