<?xml version="1.0" standalone="no"?><!DOCTYPE svg PUBLIC "-//W3C//DTD SVG 1.1//EN" "http://www.w3.org/Graphics/SVG/1.1/DTD/svg11.dtd"><svg t="1619682922842" class="icon" viewBox="0 0 1024 1024" version="1.1" xmlns="http://www.w3.org/2000/svg" p-id="14189" xmlns:xlink="http://www.w3.org/1999/xlink" width="48" height="48"><defs><style type="text/css"></style></defs><path d="M459.24351999 631.84896001c-11.46880001 0-22.36416-4.58752-30.39231999-12.61568002l-23.51104-23.51103998c-33.83296-33.83296-52.75648001-79.13472-52.75648-127.30368001 0-48.16896 18.92352-92.89728 52.75648-127.30368L595.72224001 150.7328c33.83296-33.83296 79.13472-52.75648001 127.30367999-52.75648001 48.16896 0 92.89728 18.92352 127.30368 52.75648001l23.51104 23.51104c33.83296 33.83296 52.75648001 79.13472 52.75648 127.30368001S907.6736 394.44480001 873.84064 428.8512l-73.40032 73.40032c-8.02816 8.02816-18.92352 12.61568-30.39232 12.61568s-22.9376-4.58752-30.96576-12.61568c-16.62976001-17.2032-16.62976001-44.72832 0-61.35807999l73.40032001-73.40032001c17.77664-17.77664 26.95168001-40.71424 26.95167999-65.37216 0-24.65791999-9.74848-48.16896-26.95167999-65.37216l-23.51104001-23.51104c-17.77664-17.77664-40.71424-26.95168001-65.37216-26.95168-24.65791999 0-48.16896 9.74848-65.37216 26.95168l-191.52895999 189.23519999c-17.77664 17.77664-26.95168001 40.71424-26.95168001 65.37216001 0 24.65791999 9.74848 48.16896 26.95168001 65.37216l23.51103998 23.51104c17.2032 17.2032 17.2032 44.72832 0 61.35808-7.45472 7.45472-18.35008 12.04224-29.24543999 12.61568l-1.72032001 1.14688001z" fill="#605AA5" p-id="14190"></path><path d="M301.54752001 925.45024c-48.16896 0-92.89728-18.92352-127.30368001-52.75648l-23.51104-23.51104c-33.83296-33.83296-52.75648001-79.13472-52.75648001-127.30368s18.92352-92.89728 52.75648001-127.30368L234.45504001 512c8.02816-8.02816 19.49695999-12.61568 30.39231999-12.61568 11.46880001 0 22.9376 4.58752 30.96576 12.61568 8.02816 8.02816 12.61568 19.49695999 12.61568 30.96576 0 11.46880001-4.58752 22.36416-12.61568 30.96576l-83.1488 83.1488c-36.12672 36.12672-36.12672 95.19104 0 131.31776l23.51104 23.51104c17.2032 17.2032 40.71424 26.95168001 65.37216001 26.95168h0.57343999c24.08448 0 48.16896-9.74848 65.37216-26.95168L557.8752 621.52704001c36.12672-36.12672 36.12672-95.19104 0-131.31776002l-23.51104-23.51103998c-16.62976001-17.2032-16.62976001-44.72832 0-61.35808001 8.02816-8.02816 19.49695999-12.61568 30.39232001-12.61568 11.46880001 0 22.36416 4.58752 30.96576 12.61568l23.51103998 23.51104c69.95968 69.95968 69.95968 184.07424 0 254.03392L428.8512 873.2672c-34.4064 33.83296-79.13472 52.18304-127.30367999 52.18304z" fill="#605AA5" p-id="14191"></path></svg>