<?xml version="1.0" standalone="no"?><!DOCTYPE svg PUBLIC "-//W3C//DTD SVG 1.1//EN" "http://www.w3.org/Graphics/SVG/1.1/DTD/svg11.dtd"><svg t="1619685423731" class="icon" viewBox="0 0 1024 1024" version="1.1" xmlns="http://www.w3.org/2000/svg" p-id="19201" xmlns:xlink="http://www.w3.org/1999/xlink" width="48" height="48"><defs><style type="text/css"></style></defs><path d="M999.598542 227.364172L796.635828 24.401458a88.4194 88.4194 0 0 0-121.720213 0l-284.205214 284.205214 80.955425 81.242501 264.109896-264.109896L897.973647 287.075974l-263.82282 263.822821 81.242501 81.2425 284.205214-284.205214a86.122792 86.122792 0 0 0 0-121.720213zM289.085506 897.112419L126.600505 734.914494l264.109896-263.82282-81.242501-81.242501-284.205214 284.205214a86.122792 86.122792 0 0 0 0 121.720214L229.660779 998.737314a86.122792 86.122792 0 0 0 121.720213 0l284.205215-284.205214-81.242501-81.242501z" p-id="19202" fill="#605AA5"></path><path d="M299.563779 643.279843l344.491169-344.491169 81.185086 81.213793-344.491169 344.491169z" p-id="19203" fill="#605AA5"></path></svg>