<?xml version="1.0" standalone="no"?><!DOCTYPE svg PUBLIC "-//W3C//DTD SVG 1.1//EN" "http://www.w3.org/Graphics/SVG/1.1/DTD/svg11.dtd"><svg t="1619682990033" class="icon" viewBox="0 0 1024 1024" version="1.1" xmlns="http://www.w3.org/2000/svg" p-id="18255" xmlns:xlink="http://www.w3.org/1999/xlink" width="48" height="48"><defs><style type="text/css"></style></defs><path d="M416.536774 33.296516c60.482065-11.230968 123.375484-11.230968 185.244903 0.825807a186.103742 186.103742 0 0 0 93.481291 164.005161 186.103742 186.103742 0 0 0 188.779355-1.024 496.408774 496.408774 0 0 1 93.349161 160.008258 181.644387 181.644387 0 0 0-95.198968 160.933161c0.330323 69.565935 39.506581 130.34529 96.949678 161.957162a486.433032 486.433032 0 0 1-91.796646 158.984258c-56.088774-33.957161-128.29729-37.458581-188.746322-2.972904a181.644387 181.644387 0 0 0-91.763613 162.915097c-60.482065 11.197935-123.375484 11.230968-185.244903-0.858839a186.103742 186.103742 0 0 0-93.481291-164.005161 186.103742 186.103742 0 0 0-188.779354 1.057032 496.408774 496.408774 0 0 1-93.349162-160.008258 181.644387 181.644387 0 0 0 95.198968-160.933161c-0.330323-69.598968-39.506581-130.34529-96.98271-161.957161 9.909677-28.605935 22.693161-56.683355 38.383484-83.868903A486.433032 486.433032 0 0 1 136.026839 193.23871c56.088774 33.957161 128.29729 37.491613 188.746322 3.005935a181.644387 181.644387 0 0 0 91.763613-162.915097z m3.369291 641.816774c88.856774 51.299097 201.992258 21.702194 252.696774-66.097548 50.671484-87.799742 19.75329-200.571871-69.136516-251.904-88.856774-51.299097-201.992258-21.702194-252.696775 66.064516-50.704516 87.832774-19.75329 200.604903 69.136517 251.904z" p-id="18256" fill="#605AA5"></path></svg>