<?xml version="1.0" encoding="UTF-8"?>
<svg width="48px" height="48px" viewBox="0 0 48 48" version="1.1" xmlns="http://www.w3.org/2000/svg" xmlns:xlink="http://www.w3.org/1999/xlink">
    <title>编组 17</title>
    <g id="页面-1" stroke="none" stroke-width="1" fill="none" fill-rule="evenodd">
        <g id="连接钱包" transform="translate(-998.000000, -310.000000)">
            <g id="编组-3" transform="translate(240.000000, 128.000000)">
                <g id="编组" transform="translate(460.000000, 0.000000)">
                    <g id="编组-17" transform="translate(298.000000, 182.000000)">
                        <circle id="椭圆形备份" fill="#FBF5E2" cx="24" cy="24" r="24"></circle>
                        <g id="chain-icon" transform="translate(9.000000, 6.000000)" fill="#F0B90B" fill-rule="nonzero">
                            <polygon id="路径" points="15.3 0 5.905899 5.514147 9.35964 7.551216 15.3 4.074147 21.24036 7.551216 24.69411 5.514147"></polygon>
                            <polygon id="路径" points="21.24036 10.43118 24.69411 12.46833 24.69411 16.54245 18.75375 20.01951 18.75375 26.97363 15.3 29.01069 11.84625 26.97363 11.84625 20.01951 5.905899 16.54245 5.905899 12.46833 9.35964 10.43118 15.3 13.90833"></polygon>
                            <polygon id="路径" points="24.69411 19.42245 24.69411 23.49657 21.24036 25.53363 21.24036 21.45951"></polygon>
                            <polygon id="路径" points="21.20589 28.41363 27.14625 24.93657 27.14625 17.98245 30.6 15.94539 30.6 26.97363 21.20589 32.48784"></polygon>
                            <polygon id="路径" points="27.14625 11.02833 23.69259 8.991225 27.14625 6.954147 30.6 8.991225 30.6 13.06539 27.14625 15.10245"></polygon>
                            <polygon id="路径" points="11.84625 33.96294 11.84625 29.88882 15.3 31.92588 18.75375 29.88882 18.75375 33.96294 15.3 36"></polygon>
                            <polygon id="路径" points="9.35964 25.53363 5.905899 23.49657 5.905899 19.42245 9.35964 21.45951"></polygon>
                            <polygon id="路径" points="15.3 11.02833 11.84625 8.991225 15.3 6.954147 18.75375 8.991225"></polygon>
                            <polygon id="路径" points="6.907437 8.991225 3.453723 11.02833 3.453723 15.10245 3.68594044e-14 13.06539 3.68594044e-14 8.991225 3.453723 6.954147"></polygon>
                            <polygon id="路径" points="-2.22044605e-14 15.94539 3.453723 17.98245 3.453723 24.93657 9.39411 28.41363 9.39411 32.48784 -2.22044605e-14 26.97363"></polygon>
                        </g>
                    </g>
                </g>
            </g>
        </g>
    </g>
</svg>