<?xml version="1.0" encoding="UTF-8"?>
<svg width="16px" height="16px" viewBox="0 0 16 16" version="1.1" xmlns="http://www.w3.org/2000/svg" xmlns:xlink="http://www.w3.org/1999/xlink">
    <title>Rectangle 14</title>
    <g id="页面-1" stroke="none" stroke-width="1" fill="none" fill-rule="evenodd">
        <g id="画板" transform="translate(-1173.000000, -302.000000)" fill="#14171C">
            <g id="编组-5" transform="translate(0.000000, 146.000000)">
                <g id="编组-11" transform="translate(1157.000000, 64.000000)">
                    <g id="编组-5备份-2" transform="translate(0.000000, 80.000000)">
                        <g id="编组" transform="translate(15.000000, 11.000000)">
                            <path d="M4.50055424,3.41421356 L14.3993998,13.3130592 L13.4994458,14.2130133 L8.73640955,9.44997704 L5.81818182,9.44997704 L5.81818182,8.17724977 L7.46368228,8.17724977 L6.19095501,6.9045225 L5.18181818,6.9045225 C4.12745639,6.9045225 3.27272727,7.75925161 3.27272727,8.81361341 C3.27272727,9.8679752 4.12745639,10.7227043 5.18181818,10.7227043 L7.72727273,10.7227043 L7.72727273,11.9954316 L5.18181818,11.9954316 C3.42454852,11.9954316 2,10.5708831 2,8.81361341 C2,7.14171384 3.28949836,5.77099276 4.92818888,5.64175637 L3.60060016,4.31416765 L4.50055424,3.41421356 Z M12.8181818,5.63179522 C14.5754515,5.63179522 16,7.05634375 16,8.81361341 C16,9.9838017 15.3682985,11.0064482 14.4273036,11.5591448 L13.4749051,10.6067463 C14.2057368,10.3390067 14.7272727,9.63721569 14.7272727,8.81361341 C14.7272727,7.75925161 13.8725436,6.9045225 12.8181818,6.9045225 L10.2727273,6.9045225 L10.2727273,5.63179522 L12.8181818,5.63179522 Z" id="icon" transform="translate(9.000000, 8.813613) rotate(-45.000000) translate(-9.000000, -8.813613) "></path>
                        </g>
                    </g>
                </g>
            </g>
        </g>
    </g>
</svg>