<?xml version="1.0" encoding="UTF-8"?>
<svg width="128px" height="128px" viewBox="0 0 128 128" version="1.1" xmlns="http://www.w3.org/2000/svg" xmlns:xlink="http://www.w3.org/1999/xlink">
    <title>编组 2</title>
    <g id="Welcome" stroke="none" stroke-width="1" fill="none" fill-rule="evenodd">
        <g id="Desktop" transform="translate(-490.000000, -64.000000)">
            <g id="编组-2" transform="translate(490.000000, 64.000000)">
                <g id="编组">
                    <circle id="椭圆形" fill="#605AA5" cx="64" cy="64" r="64"></circle>
                    <g id="BABEL-09" transform="translate(21.000000, 17.000000)" fill="#F8F7FC" fill-rule="nonzero" opacity="0.248887173">
                        <path d="M23.6873059,19.0562109 L62.5605479,9.93128246 L62.5605479,1.16879273 C48.1479452,5.0276994 36.7810046,-2.82869346 23.496621,1.16879273 C23.496621,6.22694525 23.496621,12.6175932 23.496621,17.4358965 C23.5019178,17.8622951 23.5972603,18.2886936 23.6873059,19.0562109 Z M12.7282192,39.9763886 L12.7282192,45.6048492 C15.1700457,45.071851 17.1192694,44.6081426 19.0843836,44.1550942 C36.2071842,40.168268 53.333516,36.1849951 70.463379,32.2052755 C71.5810046,31.9441064 72.6615525,31.9174565 72.6458352,30.2385123 C72.5768037,23.9224841 72.6191781,19.2694102 72.6191781,12.5376435 C69.3881279,13.3211507 66.5331507,12.377744 63.6675799,13.0439917 C47.4646575,16.8389386 31.2617352,20.6552054 15.0323288,24.3542126 C13.1943379,24.7752812 12.6699543,25.5321386 12.7176256,27.3390023 C12.8076712,31.5496878 12.7282192,35.7657032 12.7282192,39.9763886 Z M9.66666667,69.1473779 C31.5601218,64.1478551 53.4535769,59.1430024 75.347032,54.1328197 C80.9987215,52.8376342 81.0040183,52.8482942 81.0040183,47.0546042 L81.0040183,34.8596063 C75.5377169,36.1494619 70.4845662,35.5898138 65.4261187,36.7624098 C46.5836225,41.1401013 27.7517199,45.5213462 8.93041096,49.9061443 C8.2630137,50.0607138 7.20894977,50.7855913 7.19835616,51.2599597 C7.08182648,57.2988288 7.12420091,63.3376979 7.12420091,69.6324062 C8.16237443,69.4351969 8.91452055,69.3179373 9.66666667,69.1473779 Z M0,74.7491885 L0,83 L68.3817352,83 L68.3817352,71.0075414 C68.3817352,68.7909598 70.1674444,66.9940653 72.3702283,66.9940653 L73.2653881,66.9940653 C75.4681721,66.9940653 77.2538813,68.7909598 77.2538813,71.0075414 L77.2538813,83 L77.6511416,83 C80.130613,83 82.5085317,82.0088642 84.2617828,80.2446312 C86.0150338,78.4803982 87,76.0875848 87,73.5925825 L87,54.7884075 L0,74.7491885 Z" id="形状"></path>
                    </g>
                </g>
                <g id="dollar-2" transform="translate(43.000000, 20.000000)" fill="#FFFFFF" fill-rule="nonzero">
                    <path d="M26.9990465,76.3976 L26.9990465,83.0666666 C26.9990465,86.3435562 24.3131819,89 21,89 C17.6868181,89 15.0009535,86.3435562 15.0009535,83.0666666 L15.0009535,76.4539666 C12.0969877,75.7712631 9.32708881,74.6185038 6.80325662,73.0423 C4.3256505,71.5115 2.54993267,69.9362 1.48510198,68.7317334 C-0.674047737,66.2621338 -0.410225399,62.5312611 2.0754715,60.3829577 C4.56116839,58.2346542 8.33468148,58.4761951 10.5196659,60.9234666 C10.8616115,61.3121 11.7824651,62.1279332 13.1652453,62.9823334 C15.4868763,64.4182 18.099461,65.2666668 20.9730043,65.2666666 C26.612108,65.2666666 30.2955224,61.9618 29.9805725,59.1019334 C29.6836197,56.4200668 27.1820173,54.3552668 19.194287,50.2583 L18.2374391,49.7658334 C18.2022721,49.7483672 18.1672761,49.7305664 18.1324558,49.7124334 L17.2835907,49.2763334 C5.63644219,43.3044334 1.00817779,39.4863334 0.0933233059,31.1885666 C-0.869523643,22.4725 5.72342841,14.9253 15.0009535,12.6024 L15.0009535,5.93333338 C15.0009535,2.65644384 17.6868181,0 21,0 C24.3131819,0 26.9990465,2.65644384 26.9990465,5.93333338 L26.9990465,12.5460334 C29.9030123,13.2287369 32.6729112,14.3814962 35.1967434,15.9577 C37.6743495,17.4885 39.4500673,19.0638 40.514898,20.2682666 C42.6740477,22.7378662 42.4102254,26.4687389 39.9245285,28.6170423 C37.4388316,30.7653458 33.6653185,30.5238049 31.4803341,28.0765334 C31.1383885,27.6879 30.2175349,26.8720668 28.8347547,26.0176666 C26.5131237,24.5818 23.900539,23.7333332 21.0269957,23.7333334 C15.387892,23.7333334 11.7044776,27.0382 12.0194275,29.8980666 C12.3163803,32.5799332 14.8179827,34.6447332 22.805713,38.7417 C23.442658,39.067945 24.0795568,39.3942784 24.7164093,39.7207 C36.3635578,45.6955666 40.9918222,49.5166334 41.9066767,57.8114334 C42.8695236,66.5275 36.2765716,74.0747 26.9990465,76.3976 L26.9990465,76.3976 Z" id="形状"></path>
                </g>
            </g>
        </g>
    </g>
</svg>