<?xml version="1.0" standalone="no"?><!DOCTYPE svg PUBLIC "-//W3C//DTD SVG 1.1//EN" "http://www.w3.org/Graphics/SVG/1.1/DTD/svg11.dtd"><svg t="1619680732291" class="icon" viewBox="0 0 1024 1024" version="1.1" xmlns="http://www.w3.org/2000/svg" p-id="9486" xmlns:xlink="http://www.w3.org/1999/xlink" width="48" height="48"><defs><style type="text/css"></style></defs><path d="M736.768 905.728c-134.656 0-243.712-109.056-243.712-243.712s109.056-243.712 243.712-243.712 243.712 109.056 243.712 243.712-109.056 243.712-243.712 243.712z m0-40.96c112.128 0 203.264-91.136 203.264-203.264s-91.136-203.264-203.264-203.264-203.264 91.136-203.264 203.264 91.136 203.264 203.264 203.264z" p-id="9487" fill="#cccccc"></path><path d="M541.696 830.976H107.008V175.104h567.296v209.408c0 12.288 9.216 23.552 22.528 27.136h0.512c19.968 5.632 39.936-8.192 39.936-27.136V146.432c0-15.872-14.336-28.672-31.744-28.672H75.264c-17.408 0-31.744 12.8-31.744 28.672v713.216c0 15.872 14.336 28.672 31.744 28.672h453.632c31.232 0 45.568-35.328 21.504-53.76l-1.024-1.024c-2.048-1.536-5.12-2.56-7.68-2.56z" p-id="9488" fill="#cccccc"></path><path d="M526.848 385.024H253.952c-14.848 0-27.136-12.288-27.136-27.136V248.832c0-14.848 12.288-27.136 27.136-27.136h272.896c14.848 0 27.136 12.288 27.136 27.136v109.056c0 15.36-11.776 27.136-27.136 27.136z m-232.96-44.032H486.4c9.216 0 16.384-9.728 16.384-22.016v-31.744c0-12.288-7.168-22.016-16.384-22.016H293.888c-9.216 0-16.384 9.728-16.384 22.016v31.744c0 12.288 7.68 22.016 16.384 22.016zM226.816 466.432c0 19.968 15.872 35.84 35.84 35.84s35.84-15.872 35.84-35.84-15.872-35.84-35.84-35.84-36.352 16.384-35.84 35.84zM354.816 466.432c0 19.968 15.872 35.84 35.84 35.84s35.84-15.872 35.84-35.84-15.872-35.84-35.84-35.84-35.84 16.384-35.84 35.84zM482.816 466.432c0 19.968 15.872 35.84 35.84 35.84s35.84-15.872 35.84-35.84-15.872-35.84-35.84-35.84-35.84 16.384-35.84 35.84z" p-id="9489" fill="#cccccc"></path><path d="M226.304 607.744c0 19.968 15.872 35.84 35.84 35.84s35.84-15.872 35.84-35.84-15.872-35.84-35.84-35.84c-19.456 0-35.84 15.872-35.84 35.84zM354.816 607.744c0 19.968 15.872 35.84 35.84 35.84s35.84-15.872 35.84-35.84-15.872-35.84-35.84-35.84-35.84 15.872-35.84 35.84z" p-id="9490" fill="#cccccc"></path><path d="M226.304 749.056c0 19.968 15.872 35.84 35.84 35.84s35.84-15.872 35.84-35.84-15.872-35.84-35.84-35.84c-19.456 0-35.84 15.872-35.84 35.84zM354.816 749.056c0 19.968 15.872 35.84 35.84 35.84s35.84-15.872 35.84-35.84-15.872-35.84-35.84-35.84-35.84 15.872-35.84 35.84z" p-id="9491" fill="#cccccc"></path><path d="M603.136 741.376c-6.144 0-11.776-1.024-17.408-3.584s-10.24-5.632-14.336-9.728-7.168-8.704-9.728-14.336-3.584-11.264-3.584-17.408 1.024-11.776 3.584-17.408c2.56-5.12 5.632-10.24 9.728-13.824 4.096-4.096 8.704-7.168 14.336-9.728s11.264-3.584 17.408-3.584H609.792l61.44-74.752c-1.024-2.048-1.536-4.608-2.048-7.168-0.512-2.56-0.512-5.12-0.512-7.68 0-6.144 1.024-11.776 3.584-17.408s5.632-10.24 9.728-14.336c4.096-4.096 8.704-7.168 14.336-9.728s11.264-3.584 17.408-3.584 11.776 1.024 17.408 3.584 10.24 5.632 14.336 9.728 7.168 8.704 9.728 14.336 3.584 11.264 3.584 17.408c0 5.12-1.024 9.728-2.56 14.336s-3.584 8.704-6.656 12.8l53.248 119.296 30.72-54.784c-2.56-3.584-4.096-7.68-5.632-11.776s-2.048-8.704-2.048-13.824c0-6.144 1.024-11.776 3.584-17.408s5.632-10.24 9.728-14.336c4.096-4.096 8.704-7.168 14.336-9.728s11.264-3.584 17.408-3.584 11.776 1.024 17.408 3.584c5.632 2.56 10.24 5.632 14.336 9.728s7.168 8.704 9.728 14.336c2.56 5.632 3.584 11.264 3.584 17.408s-1.024 12.288-3.584 17.92-5.632 10.24-9.728 14.336c-4.096 4.096-8.704 7.168-14.336 9.728s-11.264 3.584-17.408 3.584h-7.68l-30.208 54.784c4.608 4.096 8.192 9.216 11.264 14.848 2.56 5.632 4.096 11.776 4.096 18.432 0 6.144-1.024 11.776-3.584 17.408-2.56 5.632-5.632 10.24-9.728 14.336-4.096 4.096-8.704 7.168-14.336 9.728s-11.264 3.584-17.408 3.584-12.288-1.024-17.408-3.584-10.24-5.632-13.824-9.728c-4.096-4.096-7.168-8.704-9.728-14.336s-3.584-11.264-3.584-17.408c0-6.656 1.536-12.8 4.096-18.432s6.144-10.752 10.752-14.848l-54.272-121.856c-2.048 0.512-3.584 0.512-5.12 0.512-3.584 0-6.656-0.512-9.728-1.024-3.072-1.024-6.144-2.048-8.704-3.072l-54.272 68.096c2.048 3.584 3.584 7.68 5.12 11.776 1.024 4.096 2.048 8.192 2.048 12.8 0 6.144-1.024 11.776-3.584 17.408-2.56 5.632-5.632 10.24-9.728 14.336s-8.704 7.168-14.336 9.728c-5.632 2.56-11.264 4.096-17.92 4.096z" p-id="9492" fill="#cccccc"></path></svg>