<?xml version="1.0" encoding="UTF-8"?>
<svg width="152px" height="24px" viewBox="0 0 152 24" version="1.1" xmlns="http://www.w3.org/2000/svg" xmlns:xlink="http://www.w3.org/1999/xlink">
    <title>supercash（定）-05</title>
    <g id="页面-1" stroke="none" stroke-width="1" fill="none" fill-rule="evenodd">
        <g id="连接钱包" transform="translate(-120.000000, -846.000000)" fill="#FFFFFF" fill-rule="nonzero">
            <g id="编组-16" transform="translate(0.000000, 812.000000)">
                <g id="supercash（定）-05" transform="translate(120.000000, 34.000000)">
                    <path d="M0.635294118,7.09411765 L4.58823529,7.09411765 C4.6258418,7.09260015 4.65903211,7.06909035 4.67294118,7.03411765 L5.77058824,4.28823529 C5.83296499,4.13038989 5.98557094,4.02678585 6.15529412,4.02705882 L23.6470588,4.02705882 C23.7928838,4.03047348 23.9264946,4.1093039 24,4.23529412 L25.0588235,6.07764706 C25.1162275,6.17709181 25.2228313,6.23781549 25.3376471,6.23647059 L29.0929412,6.23647059 C29.1979377,6.2375004 29.2966592,6.18657665 29.356684,6.10042349 C29.4167087,6.01427033 29.4302801,5.90402072 29.3929412,5.80588235 L27.4411765,0.511764706 C27.383106,0.349095528 27.2291938,0.240368556 27.0564706,0.24 L3.26117647,0.24 C3.12760457,0.240276099 3.00814662,0.323193971 2.96117647,0.448235294 L0.547058824,6.96705882 C0.534986666,6.99596563 0.538494723,7.02903363 0.556363145,7.05476416 C0.574231567,7.08049468 0.60399132,7.09533233 0.635294118,7.09411765 Z M29.4105882,8.76352941 L0.0952941176,8.75283133 C0.0577264918,8.75110675 0.0228431756,8.77238312 0.00727905913,8.80662417 C-0.0082850573,8.84086523 -0.00137822345,8.88113712 0.0247058824,8.90823529 L0.0247058824,8.90823529 L3.88235294,12.7447059 C3.9588752,12.8218276 4.06312176,12.8650517 4.17176471,12.8647059 L19.9094118,12.8647059 C20.035378,12.872368 20.1451831,12.9530895 20.1900777,13.071033 C20.2349723,13.1889766 20.2066353,13.3222812 20.1176471,13.4117647 L14.9929412,18.2858824 C14.8346166,18.4325109 14.5900893,18.4325109 14.4317647,18.2858824 L11.6470588,15.7905882 C11.5895764,15.7368184 11.514002,15.7065886 11.4352941,15.7058824 L6.96705882,15.7058824 C6.83791276,15.7068602 6.72191479,15.7850988 6.67262486,15.9044728 C6.62333493,16.0238469 6.65034217,16.1611327 6.74117647,16.2529412 L11.6470588,21.1764706 C11.9867566,21.5162425 12.4477784,21.7067474 12.9282353,21.7058853 L16.2352941,21.7058853 C16.8970305,21.7020221 17.5307721,21.4383856 18,20.9717647 L29.6470588,9.32470588 C29.7505653,9.23343878 29.7842021,9.08625406 29.7306155,8.95908583 C29.6770288,8.8319176 29.5481981,8.75319403 29.4105882,8.76352941 Z" id="形状"></path>
                    <path d="M40.2352941,15.3282353 L42.3529412,13.2529412 C42.4976471,13.4223529 44.1635294,15.2823529 46.0694118,15.2823529 C47.52,15.2823529 48.4588235,14.6294118 48.4588235,13.6411765 C48.4588235,11.2023529 40.5670588,10.7682353 40.5670588,6.18 C40.5670588,3.50117647 43.0376471,1.61647059 45.9988235,1.59176471 C48.96,1.56705882 51.5752941,4.17529412 51.8152941,4.44352941 L49.7152941,6.51882353 C49.5211765,6.32470588 47.8552941,4.48941176 45.9741176,4.48941176 C44.5235294,4.48941176 43.5847059,5.14235294 43.5847059,6.13058824 C43.5847059,8.60117647 51.5011765,9.00352941 51.5011765,13.6164706 C51.5011765,16.2705882 49.0305882,18.18 46.0447059,18.18 C43.0588235,18.18 40.4364706,15.5964706 40.2352941,15.3282353 Z" id="路径"></path>
                    <path d="M64.2882353,5.91529412 L64.2882353,18 L61.2,18 L61.2,16.7788235 C60.3502059,17.6587274 59.1865551,18.1663177 57.9635294,18.1905882 C54.9952941,18.1905882 52.9905882,15.7976471 52.9905882,12.66 L52.9905882,5.91529412 L56.1670588,5.91529412 L56.1670588,12.5788235 C56.1670588,14.1952941 57.2047059,15.3282353 58.68,15.3282353 C60.1552941,15.3282353 61.2141176,14.1705882 61.2141176,12.5541176 L61.2141176,5.91529412 L64.2882353,5.91529412 Z" id="路径"></path>
                    <path d="M78.582369,11.9505882 C78.582369,13.602731 77.9260418,15.1872062 76.7578005,16.3554475 C75.5895592,17.5236889 74.0050839,18.18 72.3529412,18.18 C71.1504256,18.1887771 69.9732416,17.8345149 68.9752941,17.1635294 L68.9752941,23.8694118 L65.8835294,23.8694118 L65.8835294,5.91529412 L68.9752941,5.91529412 L68.9752941,6.70588235 C69.9813064,6.05582907 71.1552048,5.71359538 72.3529412,5.7210532 C74.0062336,5.71741684 75.5928942,6.3725206 76.7619515,7.5415779 C77.9310088,8.7106352 78.5861126,10.2972958 78.582369,11.9505882 Z M75.4058824,11.9505882 C75.4058824,9.99529412 74.0788235,8.61882353 72.2682353,8.61882353 C70.4576471,8.61882353 69.1305882,9.99529412 69.1305882,11.9505882 C69.1305882,13.9058824 70.4329412,15.2576471 72.2682353,15.2576471 C74.1035294,15.2576471 75.3952941,13.8811765 75.3952941,11.9505882 L75.4058824,11.9505882 Z" id="形状"></path>
                    <path d="M91.4117647,14.0258824 C91.1929412,14.58 89.3823529,18.0317647 85.1823529,18.0317647 C82.6314129,17.991608 80.3549858,16.4210822 79.4117647,14.0505882 C79.1220242,13.3378331 78.9745477,12.5752716 78.9775322,11.8058824 C78.9571859,8.40428763 81.6735782,5.61745534 85.0745822,5.5508447 C88.4755862,5.48423406 91.2990168,8.16256571 91.4117647,11.5623529 C91.4241672,11.6666915 91.4241672,11.772132 91.4117647,11.8764706 L82.5176471,13.4964706 C82.9832255,14.5587131 84.0367088,15.2416035 85.1964706,15.2329412 C87.2717647,15.2329412 88.6729412,13.7117647 88.8423529,13.2035294 L91.4117647,14.0258824 Z M82.0835294,11.1529412 L87.9,10.1152941 C87.3269641,8.94978381 86.1077643,8.24473798 84.8117647,8.32941176 C83.4880131,8.47400482 82.4116433,9.46174918 82.1541176,10.7682353 L82.0835294,11.1529412 Z" id="形状"></path>
                    <path d="M100.263529,6.06 L99.4164706,9.29294118 C98.9824789,8.90970616 98.4444302,8.6640218 97.8705882,8.58705882 C96.3988235,8.58705882 95.3364706,9.74823529 95.3364706,11.3647059 L95.3364706,18 L92.2482353,18 L92.2482353,5.91529412 L95.3364706,5.91529412 L95.3364706,7.12235294 C96.1958564,6.24161975 97.3673366,5.73448548 98.5976471,5.71058824 C99.1710639,5.71123263 99.7381806,5.83018295 100.263529,6.06 Z" id="路径"></path>
                    <path d="M100.941176,9.88235294 C100.941176,5.29411765 103.934118,1.57764706 108.956471,1.57764706 C112.048235,1.57764706 114.338824,2.98941176 115.662353,5.12823529 L112.86,6.91411765 C112.08561,5.46108042 110.594965,4.53144494 108.949412,4.47529412 C106.125882,4.47529412 104.290588,6.72 104.290588,9.88235294 C104.290588,13.0447059 106.125882,15.2682353 108.949412,15.2682353 C110.591052,15.2213988 112.082466,14.3007063 112.86,12.8541176 L115.662353,14.6188235 C114.331765,16.7682353 112.041176,18.1694344 108.956471,18.1694344 C103.930588,18.18 100.941176,14.4705882 100.941176,9.88235294 Z M128.294118,5.90117647 L128.294118,18 L125.205882,18 L125.205882,17.1882353 C124.206682,17.8368301 123.040661,18.1813643 121.849412,18.180004 C118.409003,18.180004 115.62,15.3909974 115.62,11.9505882 C115.62,8.51017912 118.409003,5.72115962 121.849412,5.72115962 C123.038748,5.71839331 124.203393,6.06043087 125.202353,6.70588235 L125.202353,5.91529412 L128.294118,5.90117647 Z M125.082353,11.9364706 C125.082353,10.0058824 123.755294,8.60470588 121.944706,8.60470588 C120.134118,8.60470588 118.807059,10.0164706 118.807059,11.9364706 C118.807059,13.8564706 120.134118,15.2682353 121.944706,15.2682353 C123.755294,15.2682353 125.078824,13.8811765 125.078824,11.9505882 L125.082353,11.9364706 Z M128.922353,15.7729412 L130.877647,14.0082353 C130.877647,14.0082353 132.349412,15.48 134.378824,15.48 C135.561176,15.48 136.309412,15.0952941 136.309412,14.4917647 C136.309412,13.2105882 129.091765,13.38 129.091765,9.37411765 C129.091765,7.22470588 130.807059,5.70352941 133.969412,5.70352941 C136.027108,5.72555639 137.983595,6.59964968 139.372941,8.11764706 L137.417647,9.88235294 C137.417647,9.88235294 135.921176,8.40705882 133.888235,8.40705882 C132.730588,8.40705882 131.957647,8.79529412 131.957647,9.39882353 C131.957647,10.6764706 139.2,10.5070588 139.2,14.5164706 C139.2,16.6658824 137.46,18.1870588 134.297647,18.1870588 C132.250161,18.1643943 130.303273,17.2957041 128.918824,15.7870588 L128.922353,15.7729412 Z M151.277647,11.2341176 L151.277647,18 L148.14,18 L148.14,11.3470588 C148.14,9.73058824 147.081176,8.54470588 145.605882,8.54470588 C144.130588,8.54470588 143.068235,9.70588235 143.068235,11.3470588 L143.068235,18 L139.976471,18 L139.976471,0 L143.064706,0 L143.064706,7.14705882 C143.919608,6.2598372 145.093909,5.75148172 146.325882,5.73529412 C149.294118,5.72117647 151.274118,8.13529412 151.274118,11.2482353 L151.277647,11.2341176 Z" id="形状"></path>
                </g>
            </g>
        </g>
    </g>
</svg>