<?xml version="1.0" encoding="UTF-8"?>
<svg width="177px" height="28px" viewBox="0 0 177 28" version="1.1" xmlns="http://www.w3.org/2000/svg" xmlns:xlink="http://www.w3.org/1999/xlink">
    <title>supercash（定）-05</title>
    <defs>
        <linearGradient x1="30.7821315%" y1="15.581335%" x2="73.5168275%" y2="69.007317%" id="linearGradient-1">
            <stop stop-color="#FC466B" offset="0%"></stop>
            <stop stop-color="#F9466D" offset="22%"></stop>
            <stop stop-color="#F04774" offset="37%"></stop>
            <stop stop-color="#E14980" offset="50%"></stop>
            <stop stop-color="#CB4C90" offset="61%"></stop>
            <stop stop-color="#AF50A6" offset="72%"></stop>
            <stop stop-color="#8D54C0" offset="83%"></stop>
            <stop stop-color="#6559DE" offset="92%"></stop>
            <stop stop-color="#3F5EFB" offset="100%"></stop>
        </linearGradient>
        <linearGradient x1="-0.00701163932%" y1="49.9708907%" x2="99.9929884%" y2="49.9708907%" id="linearGradient-2">
            <stop stop-color="#FC466B" offset="0%"></stop>
            <stop stop-color="#F8466E" offset="17%"></stop>
            <stop stop-color="#EE4876" offset="31%"></stop>
            <stop stop-color="#DC4A84" offset="45%"></stop>
            <stop stop-color="#C24D97" offset="59%"></stop>
            <stop stop-color="#A152B0" offset="72%"></stop>
            <stop stop-color="#7957CF" offset="85%"></stop>
            <stop stop-color="#4A5DF3" offset="97%"></stop>
            <stop stop-color="#3F5EFB" offset="100%"></stop>
        </linearGradient>
    </defs>
    <g id="页面-1" stroke="none" stroke-width="1" fill="none" fill-rule="evenodd">
        <g id="连接钱包" transform="translate(-120.000000, -30.000000)" fill-rule="nonzero">
            <g id="supercash（定）-05" transform="translate(120.000000, 30.000000)">
                <path d="M0.740930233,8.27647059 L5.35116279,8.27647059 C5.39502247,8.27470018 5.43373164,8.24727207 5.44995349,8.20647059 L6.73011628,5.00294118 C6.80286498,4.8187882 6.98084611,4.69791683 7.1787907,4.69823529 L27.5790698,4.69823529 C27.7491423,4.70221906 27.9049699,4.79418788 27.9906977,4.94117647 L29.2255814,7.09058824 C29.2925304,7.20660712 29.4168602,7.27745141 29.5507674,7.27588235 L33.9304884,7.27588235 C34.0529437,7.2770838 34.1680805,7.21767276 34.2380861,7.11716074 C34.3080917,7.01664872 34.3239197,6.88802418 34.2803721,6.77352941 L32.0040698,0.597058824 C31.9363434,0.407278116 31.7568388,0.280429982 31.5553953,0.28 L3.80344186,0.28 C3.64765975,0.280322115 3.50833844,0.377059633 3.45355814,0.522941176 L0.638023256,8.12823529 C0.623943751,8.1619599 0.628035124,8.20053923 0.648874691,8.23055818 C0.669714258,8.26057713 0.704422435,8.27788772 0.740930233,8.27647059 Z M34.3009535,10.2241176 L0.111139535,10.2116365 C0.0673251992,10.2096245 0.0266415175,10.234447 0.00848941431,10.2743949 C-0.00966268892,10.3143428 -0.00160739316,10.3613266 0.0288139535,10.3929412 L0.0288139535,10.3929412 L4.52790698,14.8688235 C4.61715329,14.9587988 4.73873387,15.009227 4.86544186,15.0088235 L23.2199302,15.0088235 C23.366842,15.0177627 23.4949054,15.1119377 23.547265,15.2495385 C23.5996247,15.3871394 23.5665758,15.5426613 23.4627907,15.6470588 L17.4859535,21.3335294 C17.3013028,21.5045961 17.0161158,21.5045961 16.8314651,21.3335294 L13.5837209,18.4223529 C13.5166804,18.3596214 13.4285395,18.3243534 13.3367442,18.3235294 L8.12553488,18.3235294 C7.97491454,18.3246702 7.83962853,18.4159486 7.78214271,18.5552183 C7.7246569,18.694488 7.75615488,18.8546549 7.86209302,18.9617647 L13.5837209,24.7058824 C13.9799034,25.1022829 14.5175834,25.3245386 15.0779302,25.3235328 L18.9348837,25.3235328 C19.706653,25.3190257 20.4457725,25.0114498 20.9930233,24.4670588 L34.5767442,10.8788235 C34.6974617,10.7723452 34.7366915,10.6006297 34.6741945,10.4522668 C34.6116976,10.3039039 34.4614449,10.2120597 34.3009535,10.2241176 Z" id="形状" fill="url(#linearGradient-1)"></path>
                <path d="M46.9255814,17.8829412 L49.3953488,15.4617647 C49.5641163,15.6594118 51.507,17.8294118 53.7297907,17.8294118 C55.4215814,17.8294118 56.5165116,17.0676471 56.5165116,15.9147059 C56.5165116,13.0694118 47.3125116,12.5629412 47.3125116,7.21 C47.3125116,4.08470588 50.193907,1.88588235 53.6474651,1.85705882 C57.1010233,1.82823529 60.151186,4.87117647 60.431093,5.18411765 L57.981907,7.60529412 C57.7555116,7.37882353 55.8126279,5.23764706 53.6186512,5.23764706 C51.9268605,5.23764706 50.8319302,5.99941176 50.8319302,7.15235294 C50.8319302,10.0347059 60.0647442,10.5041176 60.0647442,15.8858824 C60.0647442,18.9823529 57.1833488,21.21 53.7009767,21.21 C50.2186047,21.21 47.1602093,18.1958824 46.9255814,17.8829412 Z" id="路径" fill="#040000"></path>
                <path d="M74.9780233,6.90117647 L74.9780233,21 L71.3762791,21 L71.3762791,19.5752941 C70.3851819,20.6018487 69.0280405,21.1940373 67.6016512,21.2223529 C64.1398605,21.2223529 61.801814,18.4305882 61.801814,14.77 L61.801814,6.90117647 L65.5064651,6.90117647 L65.5064651,14.6752941 C65.5064651,16.5611765 66.7166512,17.8829412 68.4372558,17.8829412 C70.1578605,17.8829412 71.3927442,16.5323529 71.3927442,14.6464706 L71.3927442,6.90117647 L74.9780233,6.90117647 Z" id="路径" fill="#040000"></path>
                <path d="M91.6489723,13.9423529 C91.6489723,15.8698528 90.8835115,17.7184073 89.5210161,19.0813555 C88.1585207,20.4443037 86.3105804,21.21 84.3837209,21.21 C82.9812522,21.22024 81.6083271,20.806934 80.4444419,20.0241176 L80.4444419,27.8476471 L76.8385814,27.8476471 L76.8385814,6.90117647 L80.4444419,6.90117647 L80.4444419,7.82352941 C81.6177329,7.06513392 82.986826,6.66586128 84.3837209,6.67456206 C86.3119213,6.67031964 88.1624103,7.43460736 89.5258574,8.79850755 C90.8893045,10.1624077 91.6533383,12.0135118 91.6489723,13.9423529 Z M87.9443023,13.9423529 C87.9443023,11.6611765 86.3965814,10.0552941 84.2849302,10.0552941 C82.1732791,10.0552941 80.6255581,11.6611765 80.6255581,13.9423529 C80.6255581,16.2235294 82.1444651,17.8005882 84.2849302,17.8005882 C86.4253953,17.8005882 87.9319535,16.1947059 87.9319535,13.9423529 L87.9443023,13.9423529 Z" id="形状" fill="#040000"></path>
                <path d="M106.611628,16.3635294 C106.356419,17.01 104.244767,21.0370588 99.3463953,21.0370588 C96.3712873,20.9902094 93.7163381,19.1579292 92.6162791,16.3923529 C92.2783608,15.5608053 92.106362,14.6711502 92.1098428,13.7735294 C92.0861134,9.80500224 95.2541848,6.5536979 99.2207046,6.47598549 C103.187224,6.39827308 106.480132,9.52299333 106.611628,13.4894118 C106.626093,13.6111401 106.626093,13.734154 106.611628,13.8558824 L96.2386047,15.7458824 C96.781599,16.9851653 98.0102545,17.7818707 99.3628605,17.7717647 C101.783233,17.7717647 103.417395,15.9970588 103.614977,15.4041176 L106.611628,16.3635294 Z M95.7323023,13.0117647 L102.51593,11.8011765 C101.84761,10.4414144 100.425683,9.61886098 98.914186,9.71764706 C97.3703223,9.88633895 96.1149747,11.0387074 95.8146279,12.5629412 L95.7323023,13.0117647 Z" id="形状" fill="#040000"></path>
                <path d="M116.935256,7.07 L115.947349,10.8417647 C115.441193,10.3946572 114.813678,10.1080254 114.144419,10.0182353 C112.42793,10.0182353 111.18893,11.3729412 111.18893,13.2588235 L111.18893,21 L107.587186,21 L107.587186,6.90117647 L111.18893,6.90117647 L111.18893,8.30941176 C112.191214,7.28188971 113.557487,6.69023305 114.992372,6.66235294 C115.661136,6.66310473 116.322552,6.80188011 116.935256,7.07 Z" id="路径" fill="#040000"></path>
                <path d="M117.725581,11.5294118 C117.725581,6.17647059 121.216186,1.84058824 127.073651,1.84058824 C130.679512,1.84058824 133.350977,3.48764706 134.894581,5.98294118 L131.626256,8.06647059 C130.723101,6.37126049 128.984592,5.28668577 127.065419,5.22117647 C123.772395,5.22117647 121.63193,7.84 121.63193,11.5294118 C121.63193,15.2188235 123.772395,17.8129412 127.065419,17.8129412 C128.98003,17.7582986 130.719435,16.6841574 131.626256,14.9964706 L134.894581,17.0552941 C133.342744,19.5629412 130.671279,21.1976734 127.073651,21.1976734 C121.21207,21.21 117.725581,16.8823529 117.725581,11.5294118 Z M149.626744,6.88470588 L149.626744,21 L146.025,21 L146.025,20.0529412 C144.859654,20.8096351 143.499748,21.2115916 142.110419,21.2100047 C138.097941,21.2100047 134.845186,17.9561636 134.845186,13.9423529 C134.845186,9.9285423 138.097941,6.67468622 142.110419,6.67468622 C143.497517,6.67145886 144.855817,7.07050269 146.020884,7.82352941 L146.020884,6.90117647 L149.626744,6.88470588 Z M145.88093,13.9258824 C145.88093,11.6735294 144.333209,10.0388235 142.221558,10.0388235 C140.109907,10.0388235 138.562186,11.6858824 138.562186,13.9258824 C138.562186,16.1658824 140.109907,17.8129412 142.221558,17.8129412 C144.333209,17.8129412 145.876814,16.1947059 145.876814,13.9423529 L145.88093,13.9258824 Z M150.359442,18.4017647 L152.63986,16.3429412 C152.63986,16.3429412 154.356349,18.06 156.723209,18.06 C158.102163,18.06 158.974814,17.6111765 158.974814,16.9070588 C158.974814,15.4123529 150.557023,15.61 150.557023,10.9364706 C150.557023,8.42882353 152.557535,6.65411765 156.245721,6.65411765 C158.645569,6.67981579 160.927379,7.6995913 162.547744,9.47058824 L160.267326,11.5294118 C160.267326,11.5294118 158.522023,9.80823529 156.151047,9.80823529 C154.800907,9.80823529 153.899442,10.2611765 153.899442,10.9652941 C153.899442,12.4558824 162.346047,12.2582353 162.346047,16.9358824 C162.346047,19.4435294 160.316721,21.2182353 156.628535,21.2182353 C154.240595,21.1917933 151.96998,20.1783215 150.355326,18.4182353 L150.359442,18.4017647 Z M176.431953,13.1064706 L176.431953,21 L172.772581,21 L172.772581,13.2382353 C172.772581,11.3523529 171.537698,9.96882353 169.817093,9.96882353 C168.096488,9.96882353 166.857488,11.3235294 166.857488,13.2382353 L166.857488,21 L163.251628,21 L163.251628,0 L166.853372,0 L166.853372,8.33823529 C167.850427,7.3031434 169.219989,6.71006201 170.656814,6.69117647 C174.118605,6.67470588 176.427837,9.49117647 176.427837,13.1229412 L176.431953,13.1064706 Z" id="形状" fill="url(#linearGradient-2)"></path>
            </g>
        </g>
    </g>
</svg>