<svg id="图层_1" data-name="图层 1" xmlns="http://www.w3.org/2000/svg" viewBox="0 0 375.51 83.5"><defs><style>.cls-1{fill:#605aa5;}</style></defs><title>BABEL</title><path class="cls-1" d="M112.24,15.52h27.93c12,0,17.13,5.91,17.13,12.8A11,11,0,0,1,150,38.89c4.83,1.53,9.08,5.29,9.08,11.38,0,9.21-7,14.78-19.48,14.78H112.24Zm25.31,19.24c5.13,0,6.59-2.08,6.59-4.81,0-3.46-2.59-4.95-6.51-4.95H124.78v9.76ZM124.78,55.63H138c4.46,0,7.61-1.29,7.61-5.89,0-3.67-2.4-5.57-7.25-5.57H124.78Z"/><path class="cls-1" d="M180.16,54.35l-4,10.7H163l19.75-49.53H199.2L220,65.05H206.23l-4.3-10.7Zm18.25-10.16c-4.4-11-6.56-16.71-7.75-20.56h-.07c-1.13,3.78-3.65,11.17-7.19,20.56Z"/><path class="cls-1" d="M226.19,15.52h27.92c12,0,17.13,5.91,17.13,12.8a10.94,10.94,0,0,1-7.3,10.57c4.84,1.53,9.08,5.29,9.08,11.38,0,9.21-7,14.78-19.48,14.78H226.19Zm25.3,19.24c5.13,0,6.6-2.08,6.6-4.81,0-3.46-2.6-4.95-6.52-4.95H238.73v9.76ZM238.73,55.63H252c4.46,0,7.6-1.29,7.6-5.89,0-3.67-2.4-5.57-7.24-5.57H238.73Z"/><path class="cls-1" d="M322.4,44.46H295.05V54.89H325.5l-1.45,10.16H282.31V15.52h41.58V25.67H295.05V34.3H322.4Z"/><path class="cls-1" d="M334.28,15.52H347V54.89h27.43L372.8,65.05H334.28Z"/><path class="cls-1" d="M0,69.83v7.71H64.29V66.76a4.17,4.17,0,0,1,8.34,0V77.54H73a8.79,8.79,0,0,0,8.79-8.79V51.19Zm22.27-52L58.81,9.28V1.09c-13.55,3.61-24.23-3.73-36.72,0,0,4.72,0,10.7,0,15.2A13.72,13.72,0,0,0,22.27,17.8ZM12,37.35V42.6l6-1.35q24.15-5.58,48.29-11.16c1.06-.25,2.07-.27,2.05-1.84-.06-5.9,0-10.25,0-16.54-3,.73-5.72-.15-8.41.48-15.24,3.54-30.47,7.1-45.73,10.56-1.73.39-2.22,1.1-2.17,2.79C12,29.47,12,33.41,12,37.35ZM9.08,64.6l61.73-14c5.31-1.21,5.32-1.2,5.32-6.61V32.57c-5.14,1.2-9.89.68-14.65,1.78Q34.93,40.47,8.4,46.62c-.63.15-1.62.82-1.63,1.27-.11,5.64-.07,11.28-.07,17.16C7.67,64.87,8.38,64.76,9.08,64.6Z"/></svg>